# xmcd
#
# Track frame offsets: 
#        150
#        16402
#        31325
#        47190
#        64197
#        82490
#        99915
#        114577
#        125217
#        137475
#
# Disc length: 2125 seconds
#
# Revision: 4
# Processed by: cddbd v1.5.2PL0 Copyright (c) Steve Scherf et al.
# Submitted via: ExactAudioCopy v0.90b4
#
DISCID=8c084b0a
DTITLE=Alabama - Feels So Right
DYEAR=1981
DGENRE=Country
TTITLE0=Feels So Right
TTITLE1=Love In The First Degree
TTITLE2=Burn Georgia Burn
TTITLE3=Ride The Train
TTITLE4=Fantasy
TTITLE5=Hollywood
TTITLE6=Old Flame
TTITLE7=Woman Back Home
TTITLE8=See The Embers, Feel The Flame
TTITLE9=I'm Stoned
EXTD=Originally Released 1981\nCD Edition Released July 1987\n\nAMG EX
EXTD=PERT REVIEW: On Alabama's second album, Feels So Right, you can h
EXTD=ear the band becoming comfortable with their sound and finding th
EXTD=eir niche. Unlike their first release, My Home's in Alabama, they
EXTD=don't sound like they're testing out various tempos, selections,
EXTD=and styles. This session has a flowing consistency which resulte
EXTD=d in three hit singles: the mellow pop of "Feels So Right" and "L
EXTD=ove in the First Degree," along with traditional country on "Old 
EXTD=Flame." -- Al Campbell\n\nHalf.com Album Notes\nAlabama: Jeff Coo
EXTD=k, Teddy Gentry, Randy Owen (vocals) - Mark Herndon.\n\nAdditional
EXTD=personnel: Kristin Wilkinson, Joann Cruthirds, Mark Feldman, Sol
EXTD=ie Fott, Daniel Furth, Larry Lasson, Martha Wiggins (strings).\n\n
EXTD=Recorded at The Music Mill, Nashville, Tennessee.\nProducers: Ala
EXTD=bama, Larry McBride, Harold Shedd.\nEngineers: Harold Shedd, Gene
EXTD=Rice, Jim Cotton.\n\nArguably the 800-pound gorilla of country p
EXTD=rior to the arrival of Garth Brooks and Travis Tritt in the early
EXTD='90s, Alabama blends Southern rock and radio-friendly pop with t
EXTD=raditional country and bluegrass. The group's sophomore release F
EXTD=EELS SO RIGHT is typical of the period in country music when smoo
EXTD=th, slick production was beginning to take hold.\n\nA streamlined
EXTD=, pop inflected album, FEELS SO RIGHT is full of hook laden, lyri
EXTD=cally unswerving songs about love and heartache. This is Alabama 
EXTD=at its best.
EXTT0=
EXTT1=
EXTT2=
EXTT3=
EXTT4=
EXTT5=
EXTT6=
EXTT7=
EXTT8=
EXTT9=
PLAYORDER=
